#!OML:ASF E:/inclinewalkrobotboard/Project1/Captureday1/Session1/subject1.ASF
:FULLY-SPECIFIED
:DEGREES
151
root 0 0 0 1.313839306768644 -3.853445499761352 1.8326082420518928
lowerback 12.169246743125484 0.8576415672189384 -0.05987925526363813
upperback -4.386189141931901 1.0949500999757469 -0.568393878142952
thorax -11.61896666402394 0.4974962883122459 -0.8203039278809781
lowerneck -6.010520220452297 1.594299052177522 4.46389655760284
upperneck 18.388837567812722 3.099583746752618 -8.197340973156313
head 6.743778764401149 1.1345315878035422 -3.1432431547167683
rclavicle 1.9321080213992354E-15 -4.0314456425338703E-16
rhumerus 21.25317749799754 15.771622508841274 -47.637614939625436
rradius 73.64695859246933
rwrist 26.822832701010775
rhand -34.66074555422903 -57.66392923459258
rfingers 7.125020000000014
rthumb -7.801629150877744 -87.60808866847468
lclavicle -4.3726674653261326E-16 -1.019575379375127E-15
lhumerus 22.124606513993854 -12.529347044278506 43.86398707383403
lradius 71.11791561533474
lwrist -23.56070545298259
lhand -44.62165404781749 -71.13327810905456
lfingers 7.125020000000031
lthumb -17.401163144496945 -41.83526627778562
rfemur -25.231117744890035 -2.2180284436004856 17.200907572010543
rtibia 54.196056837801116
rfoot -29.698902875030313 -16.767222932270176
rtoes -18.433119671064002
lfemur -26.488415854657323 2.290834799678401 -17.62732863080381
ltibia 53.330039656152664
lfoot -32.59968596343332 -2.614064597257554
ltoes -21.019928420438642
152
root 0 0 0 1.3136480857776691 -3.855773648927752 1.8329334941545055
lowerback 12.169090374640714 0.8579247614378176 -0.06019978871660159
upperback -4.385620447758691 1.095266155067786 -0.5682629744574691
thorax -11.618205113646106 0.49768679256358705 -0.8200322423991422
lowerneck -6.009074683414056 1.5936175971325237 4.463357757223767
upperneck 18.38726017974459 3.0987894754472904 -8.197015516283418
head 6.74308485097692 1.1341821662257185 -3.1431485985666816
rclavicle 1.9194656719841504E-15 -3.9720921718756813E-16
rhumerus 21.252529339420057 15.7713551269658 -47.63866960174019
rradius 73.64592764417309
rwrist 26.822173867016833
rhand -34.65998513136541 -57.66219393387313
rfingers 7.125020000000014
rthumb -7.800617844349171 -87.60618673748438
lclavicle -4.429191137678742E-16 -1.0185936134985831E-15
lhumerus 22.12626606493773 -12.527881280582111 43.863685915262145
lradius 71.11879254465917
lwrist -23.560900782154093
lhand -44.62181157033943 -71.13557387312682
lfingers 7.125020000000031
lthumb -17.401313953551615 -41.83856315168251
rfemur -25.232050159673918 -2.217158445131574 17.201727819548424
rtibia 54.19392718070198
rfoot -29.696174501677614 -16.768494274678254
rtoes -18.430607004304285
lfemur -26.4950927754089 2.2917811465827453 -17.63134697422247
ltibia 53.329849441728285
lfoot -32.59999145716736 -2.612434844149704
ltoes -21.006900813490198
153
root 0 0 0 1.3139444223514554 -3.853943884674395 1.8326509813824496
lowerback 12.16926526206367 0.8577044580988524 -0.05984864381087718
upperback -4.386091003655484 1.0950391747509562 -0.568388105217032
thorax -11.618859469768886 0.4975417451475429 -0.8203297511473877
lowerneck -6.010281852389157 1.5941624386561555 4.463803696488184
upperneck 18.388506767466975 3.0994151028526717 -8.197260122010215
head 6.743641257222542 1.1344633703066256 -3.143221749834942
rclavicle 1.9323087812271606E-15 -4.034698049969086E-16
rhumerus 21.2532908742226 15.77182716759472 -47.637679389857475
rradius 73.64701252806265
rwrist 26.822783175262018
rhand -34.660519314734024 -57.663686026608694
rfingers 7.125020000000014
rthumb -7.8014167515016855 -87.60788251630521
lclavicle -4.3601684810685537E-16 -1.019494829909386E-15
lhumerus 22.124257928106836 -12.52909331156503 43.86414412964385
lradius 71.11751863903314
lwrist -23.56065359613865
lhand -44.62161755617518 -71.1328528264537
lfingers 7.125020000000031
lthumb -17.401129472589446 -41.83484834937265
rfemur -25.231271271347445 -2.218149687081014 17.20078974014034
rtibia 54.196368619323714
rfoot -29.6990515464472 -16.76725042236803
rtoes -18.4327028691144
lfemur -26.488855374373742 2.290881148679544 -17.627694457112824
ltibia 53.32996306364528
lfoot -32.60034269348064 -2.612926341353605
ltoes -21.01722227851039
154
root 0 0 0 1.3138921465354452 -3.853659525626584 1.8326517257390558
lowerback 12.169264309431208 0.8576628839710672 -0.05989406367461747
upperback -4.386158994647258 1.0949758261124238 -0.5683984342701297
thorax -11.618940039135467 0.497510054302636 -0.8203019203875572
lowerneck -6.010459519459267 1.594260233067671 4.4638527264638945
upperneck 18.38873184226732 3.0995363087721604 -8.19730521456624
head 6.743737396717464 1.1345127264335861 -3.143228792151592
rclavicle 1.9322630606945603E-15 -4.0327470553917774E-16
rhumerus 21.253152606719162 15.771655447071149 -47.63770407777372
rradius 73.64692205894698
rwrist 26.822778554879143
rhand -34.6606268193299 -57.663740827799735
rfingers 7.125020000000014
rthumb -7.801514678288324 -87.60789825501564
lclavicle -4.3762282820044787E-16 -1.0202359389264155E-15
lhumerus 22.12455047028996 -12.529296844945662 43.863987601120854
lradius 71.11785819550306
lwrist -23.560729489137536
lhand -44.6216290666664 -71.13318979063517
lfingers 7.125020000000031
lthumb -17.401134758787574 -41.83515673809147
rfemur -25.23115818113276 -2.218100978494297 17.200891016008498
rtibia 54.196277222890195
rfoot -29.698850832899666 -16.767175321991893
rtoes -18.43312621593614
lfemur -26.488818164404023 2.2907877189690673 -17.62758150341176
ltibia 53.32988935479588
lfoot -32.600356484475256 -2.613474809539858
ltoes -21.018517821498314
